<?xml version="1.0" standalone="no"?>
<!DOCTYPE svg PUBLIC "-//W3C//DTD SVG 20010904//EN"
 "http://www.w3.org/TR/2001/REC-SVG-20010904/DTD/svg10.dtd">
<svg version="1.0" xmlns="http://www.w3.org/2000/svg"
 width="468.000000pt" height="468.000000pt" viewBox="0 0 468.000000 468.000000"
 preserveAspectRatio="xMidYMid meet">
<metadata>
Created by potrace 1.11, written by Peter Selinger 2001-2013
</metadata>
<g transform="translate(0.000000,468.000000) scale(0.100000,-0.100000)"
fill="#000000" stroke="none">
<path d="M2235 3677 c-132 -40 -242 -85 -275 -112 -8 -7 -32 -18 -53 -25 -20
-6 -35 -16 -32 -21 4 -5 2 -9 -3 -9 -8 0 -88 -78 -130 -127 -10 -13 -21 -20
-24 -17 -3 3 -10 -8 -16 -23 -5 -15 -19 -37 -30 -49 -11 -11 -23 -31 -27 -44
-4 -13 -18 -44 -30 -68 -13 -25 -20 -52 -17 -60 4 -11 1 -13 -8 -7 -10 6 -12
4 -7 -8 3 -9 3 -19 -2 -21 -18 -12 -36 -129 -36 -241 0 -125 24 -286 44 -293
6 -2 9 -8 6 -12 -5 -9 24 -80 37 -90 3 -3 8 -12 10 -20 2 -8 13 -26 26 -40 12
-14 31 -43 42 -65 11 -22 20 -36 20 -31 0 5 8 0 18 -12 41 -49 51 -59 86 -90
20 -18 34 -37 31 -42 -3 -5 0 -12 6 -16 8 -5 9 -3 4 6 -5 8 -3 11 6 8 8 -3 14
-10 14 -15 0 -6 4 -15 9 -20 5 -5 6 -3 2 5 -12 20 6 14 68 -24 125 -75 298
-115 471 -107 110 4 193 28 325 91 41 20 81 35 89 33 7 -1 10 2 6 8 -3 6 -1
11 4 11 6 0 19 8 29 18 83 78 138 126 144 125 4 -2 4 5 1 15 -3 9 -3 14 2 10
18 -17 127 176 165 292 40 124 36 433 -6 498 -9 13 -13 30 -10 38 3 9 1 12 -4
9 -6 -4 -10 6 -10 23 0 16 -8 40 -18 53 -10 13 -21 32 -25 42 -3 9 -11 17 -18
17 -6 0 -8 7 -5 16 3 8 2 13 -2 10 -5 -3 -16 11 -27 30 -10 19 -23 34 -28 34
-6 0 -8 3 -5 6 8 7 -103 116 -162 159 -45 32 -229 125 -249 125 -6 0 -30 7
-54 15 -51 17 -306 26 -352 12z"/>
<path d="M1177 3050 c-205 -5 -209 -5 -228 -29 -33 -41 -24 -93 22 -116 22
-12 77 -15 271 -15 134 0 248 4 254 8 25 16 40 115 22 139 -15 20 -20 21 -341
13z"/>
<path d="M3275 3028 c-16 -27 -12 -78 6 -78 5 0 9 -9 9 -20 0 -36 30 -40 287
-40 281 1 289 3 295 75 2 31 -2 41 -25 59 -27 20 -42 21 -292 26 l-264 5 -16
-27z"/>
<path d="M1059 2800 c-307 -5 -339 -7 -357 -23 -25 -23 -20 -73 10 -99 19 -17
50 -18 380 -18 l359 0 15 35 c23 57 2 105 -48 108 -13 1 -174 0 -359 -3z"/>
<path d="M3321 2787 c-6 -8 -8 -17 -4 -20 3 -4 1 -7 -6 -7 -8 0 -9 -6 -4 -17
5 -10 8 -27 8 -38 -2 -45 -2 -45 378 -45 266 1 363 4 371 13 25 25 34 51 26
79 -5 15 -6 28 -2 29 4 0 -2 4 -13 9 -11 5 -183 9 -381 9 -291 1 -364 -2 -373
-12z"/>
<path d="M999 2568 c-67 -13 -88 -84 -40 -132 18 -17 37 -18 277 -17 143 0
268 2 279 4 25 5 25 54 0 112 l-18 40 -232 0 c-128 0 -248 -3 -266 -7z"/>
<path d="M3295 2550 c-4 -14 -13 -33 -22 -42 -15 -17 -11 -72 7 -83 5 -3 133
-6 286 -7 305 -1 287 -5 306 61 9 29 -17 78 -47 88 -11 4 -133 7 -272 8 l-252
0 -6 -25z"/>
<path d="M3457 1686 c4 -5 0 -7 -8 -5 -25 8 -64 -44 -67 -90 -4 -38 0 -46 36
-80 22 -21 53 -41 69 -44 33 -7 83 -49 83 -72 0 -25 -38 -55 -70 -55 -33 0
-70 33 -70 62 0 13 -8 18 -30 18 -28 0 -30 -2 -30 -39 0 -64 41 -91 138 -91
77 0 119 29 128 87 8 54 -11 92 -59 118 -20 12 -35 23 -33 26 2 2 -6 5 -19 5
-34 2 -74 35 -75 61 0 30 40 56 74 47 25 -6 55 -42 45 -54 -2 -3 10 -6 27 -8
29 -3 32 0 36 29 8 54 -24 80 -109 88 -45 4 -69 3 -66 -3z"/>
<path d="M757 1663 c-5 -28 0 -33 30 -33 l24 0 -3 -142 c-3 -140 -4 -143 -25
-146 -15 -2 -23 -10 -23 -23 0 -18 8 -19 144 -19 l144 0 4 28 c2 15 1 41 -2
57 -4 24 -10 30 -30 30 -20 0 -26 -6 -28 -27 -3 -24 -7 -26 -54 -30 -27 -1
-53 -1 -57 2 -4 3 -8 62 -10 132 -3 127 -3 128 22 137 16 6 23 16 22 31 -1 20
-7 22 -78 23 -71 2 -76 1 -80 -20z"/>
<path d="M1163 1683 c-63 -3 -73 -6 -73 -22 0 -10 9 -21 20 -24 19 -5 20 -14
20 -152 0 -142 -1 -146 -20 -140 -16 5 -20 2 -20 -19 0 -26 1 -26 75 -26 l75
0 0 33 c0 24 -3 28 -10 17 -7 -11 -10 -11 -10 -2 0 7 -4 10 -10 7 -9 -5 -16
248 -7 273 1 4 10 7 20 6 12 0 17 7 17 28 0 15 -1 27 -2 26 -2 -1 -36 -4 -75
-5z"/>
<path d="M1413 1682 l-123 -3 0 -43 c0 -61 6 -74 35 -68 17 3 25 12 27 31 3
25 6 26 66 29 34 2 62 0 62 -3 0 -18 -22 -45 -32 -39 -7 4 -8 3 -4 -4 4 -7
-28 -62 -73 -127 -45 -64 -81 -125 -81 -135 0 -19 8 -20 145 -20 l146 0 -3 58
c-3 58 -4 59 -48 53 -5 0 -10 -14 -10 -31 l0 -30 -70 2 c-64 2 -69 3 -55 18 8
9 15 21 15 27 0 5 9 18 20 28 11 10 20 23 20 29 0 6 9 22 20 36 44 55 108 162
106 177 -3 19 -2 19 -163 15z"/>
<path d="M1703 1682 c-64 -3 -73 -5 -73 -22 0 -12 8 -20 23 -22 22 -3 22 -6
25 -150 l3 -148 -30 0 c-24 0 -28 -3 -24 -20 5 -18 14 -20 85 -20 77 0 79 1
76 23 -2 14 -10 22 -23 22 -17 0 -20 8 -23 58 l-4 57 97 0 96 0 -3 -57 c-3
-51 -6 -58 -25 -61 -15 -2 -23 -10 -23 -23 0 -17 8 -19 81 -19 78 0 80 1 77
23 -2 14 -11 23 -25 25 -20 3 -21 8 -22 148 l-2 144 26 0 c22 0 26 4 23 22 -2
16 -9 22 -25 21 -13 0 -48 -1 -79 -2 -51 -1 -55 -3 -52 -23 2 -17 9 -22 26
-20 21 3 22 0 22 -57 l0 -60 -42 -6 c-24 -4 -65 -5 -93 -3 l-50 3 -3 63 c-3
61 -2 62 23 62 18 0 25 5 25 19 0 26 -3 27 -87 23z"/>
<path d="M2215 1660 c-7 -14 -19 -44 -25 -67 -7 -24 -16 -43 -20 -43 -4 0 -7
-6 -7 -12 2 -20 -36 -128 -45 -128 -4 0 -4 -7 -1 -17 5 -12 3 -14 -7 -8 -8 5
-11 4 -7 -3 11 -16 -4 -43 -22 -40 -10 2 -17 -5 -19 -19 -3 -22 0 -23 67 -23
64 0 71 2 71 20 0 11 -7 20 -16 20 -11 0 -14 6 -10 20 3 11 9 29 12 40 5 17
14 20 70 20 60 0 65 -2 74 -26 14 -35 12 -55 -2 -52 -14 3 -18 -3 -18 -27 0
-12 14 -15 70 -15 68 0 70 1 70 25 0 19 -5 25 -17 23 -22 -4 -75 125 -68 162
4 17 3 21 -3 11 -7 -9 -17 9 -36 65 -32 96 -34 99 -69 99 -21 1 -32 -6 -42
-25z"/>
<path d="M2583 1675 c-17 -7 -33 -12 -35 -10 -2 2 -20 -19 -41 -47 -34 -46
-37 -56 -37 -115 0 -63 31 -163 51 -163 5 0 6 -8 3 -17 -4 -13 -3 -15 4 -5 7
11 16 9 43 -7 25 -16 51 -21 99 -21 107 0 164 44 146 113 -5 22 -9 24 -33 18
-21 -6 -27 -13 -25 -30 3 -17 -5 -25 -33 -37 -95 -39 -195 33 -195 141 0 41
26 99 40 90 6 -3 7 1 4 10 -4 11 4 19 30 30 75 31 146 9 142 -45 -2 -27 0 -28
28 -23 17 3 33 8 35 10 11 9 5 70 -9 84 -36 38 -155 51 -217 24z"/>
<path d="M3125 1681 c-52 -5 -60 -9 -60 -26 1 -11 6 -19 13 -17 20 4 14 -8
-29 -65 -55 -71 -69 -70 -69 7 0 53 2 60 20 60 13 0 20 7 20 20 0 18 -7 20
-75 20 -67 0 -75 -2 -75 -19 0 -12 10 -21 26 -25 26 -7 27 -8 20 -74 -3 -37
-6 -102 -6 -144 0 -71 -2 -78 -20 -78 -13 0 -20 -7 -20 -20 0 -18 7 -20 74
-20 65 0 74 2 79 20 4 16 0 20 -19 20 -23 0 -24 3 -24 65 0 57 2 65 19 65 12
0 32 -23 60 -71 22 -40 41 -75 41 -79 0 -12 27 -20 65 -20 24 0 34 5 38 20 4
14 0 20 -13 20 -20 0 -43 23 -33 33 3 4 2 7 -4 7 -5 0 -21 21 -34 48 -13 26
-29 53 -36 60 -10 10 -2 27 39 84 29 39 54 66 56 60 2 -7 8 -10 13 -6 11 6 12
65 2 62 -5 -1 -35 -4 -68 -7z"/>
<path d="M3787 1671 c-4 -17 -3 -21 5 -13 5 5 8 16 6 23 -3 8 -7 3 -11 -10z"/>
<path d="M3801 1643 c-7 -21 -18 -54 -26 -73 -7 -19 -30 -79 -50 -132 -23 -60
-43 -98 -51 -98 -8 0 -14 -9 -14 -20 0 -18 7 -20 69 -20 60 0 69 2 74 20 4 16
0 20 -18 20 -23 0 -24 1 -11 38 l13 37 62 0 63 0 13 -38 c11 -33 11 -37 -4
-35 -10 2 -17 -5 -19 -19 -3 -22 0 -23 72 -23 69 0 76 2 76 20 0 13 -7 20 -19
20 -15 0 -27 18 -50 80 -17 43 -31 84 -31 89 0 5 -14 46 -31 90 l-31 81 -37 0
c-34 0 -38 -3 -50 -37z"/>
<path d="M2090 1091 l-45 -6 0 -59 0 -59 45 -1 c51 -1 56 15 9 27 -37 10 -34
16 8 19 26 2 29 5 20 19 -7 11 -19 15 -34 13 -13 -3 -23 1 -23 7 0 7 13 10 34
7 26 -3 32 0 28 10 -3 8 1 18 9 23 8 5 10 8 4 7 -5 0 -30 -4 -55 -7z"/>
<path d="M2492 1092 c-21 -3 -23 -8 -20 -65 l3 -62 40 3 c42 3 71 27 56 46 -4
6 -7 21 -6 34 1 12 -4 27 -12 33 -7 6 -13 8 -13 4 0 -4 -6 -3 -12 2 -7 5 -23
7 -36 5z"/>
<path d="M3148 1093 c10 -4 10 -8 1 -20 -7 -8 -8 -13 -3 -12 39 7 46 -1 42
-46 -2 -28 1 -46 8 -49 19 -7 24 4 24 50 0 35 4 43 22 48 36 9 9 23 -52 28
-30 3 -49 3 -42 1z"/>
<path d="M1567 1083 c-13 -13 -7 -23 14 -23 19 0 21 -5 17 -45 -2 -28 1 -46 8
-49 19 -7 24 4 24 50 0 34 4 43 21 47 34 9 11 27 -35 27 -23 0 -46 -3 -49 -7z"/>
<path d="M1798 1083 c-2 -5 -1 -35 2 -68 5 -46 8 -55 15 -40 16 37 55 49 55
17 0 -23 8 -32 23 -26 16 6 10 124 -6 124 -17 0 -45 -20 -29 -20 6 0 12 -7 12
-16 0 -25 -44 -13 -48 14 -3 21 -17 30 -24 15z"/>
<path d="M2708 1030 l-3 -60 38 0 c20 0 40 0 44 -1 4 0 9 4 11 10 2 6 -10 11
-27 11 -17 0 -31 5 -31 11 0 5 3 8 8 6 12 -8 54 12 47 23 -3 5 -17 10 -31 10
-36 0 -29 18 9 22 48 5 39 23 -15 26 l-46 3 -4 -61z"/>
<path d="M2938 1064 c-10 -22 -10 -28 0 -32 7 -2 18 -10 26 -17 7 -8 16 -11
20 -8 3 4 6 1 6 -5 0 -15 -27 -16 -36 -1 -4 8 -9 8 -17 0 -14 -14 1 -29 33
-31 44 -4 50 0 50 29 0 24 -6 31 -32 41 -25 10 -29 14 -15 17 10 3 24 0 31 -6
10 -9 13 -6 12 11 -1 18 -8 24 -33 26 -28 3 -35 -1 -45 -24z"/>
<path d="M2021 964 c0 -11 3 -14 6 -6 3 7 2 16 -1 19 -3 4 -6 -2 -5 -13z"/>
</g>
</svg>
